<svg xmlns="http://www.w3.org/2000/svg" width="82" height="60" viewBox="0 0 82 60">
  <metadata><?xpacket begin="﻿" id="W5M0MpCehiHzreSzNTczkc9d"?>
<x:xmpmeta xmlns:x="adobe:ns:meta/" x:xmptk="Adobe XMP Core 5.6-c142 79.160924, 2017/07/13-01:06:39        ">
   <rdf:RDF xmlns:rdf="http://www.w3.org/1999/02/22-rdf-syntax-ns#">
      <rdf:Description rdf:about=""/>
   </rdf:RDF>
</x:xmpmeta>
                                                                                                    
                                                                                                    
                                                                                                    
                                                                                                    
                                                                                                    
                                                                                                    
                                                                                                    
                                                                                                    
                                                                                                    
                                                                                                    
                                                                                                    
                                                                                                    
                                                                                                    
                                                                                                    
                                                                                                    
                                                                                                    
                                                                                                    
                                                                                                    
                                                                                                    
                                                                                                    
                           
<?xpacket end="w"?></metadata>
<defs>
    <style>
      .cls-1 {
        fill-rule: evenodd;
      }
    </style>
  </defs>
  <path id="Forma_1" data-name="Forma 1" class="cls-1" d="M921.491,192.549h-3.61v-3.42a1.511,1.511,0,0,0-1.333-1.5l-20.918-2.46A24.71,24.71,0,0,0,882,187.441a24.7,24.7,0,0,0-13.631-2.273l-20.918,2.46a1.51,1.51,0,0,0-1.332,1.5v3.42h-3.61A1.509,1.509,0,0,0,841,194.06v49.429A1.509,1.509,0,0,0,842.509,245h78.982A1.509,1.509,0,0,0,923,243.489V194.06A1.51,1.51,0,0,0,921.491,192.549Zm-26.213-4.38,19.586,2.3V235.4l-19.234-2.262a24.7,24.7,0,0,0-12.122,1.61V190.07A21.7,21.7,0,0,1,895.278,188.169Zm-26.557,0a21.7,21.7,0,0,1,11.77,1.9v44.674a24.7,24.7,0,0,0-12.122-1.61L849.136,235.4V190.472Zm51.262,53.81H844.017V195.57h2.1v41.524a1.51,1.51,0,0,0,1.684,1.5l20.918-2.46a21.715,21.715,0,0,1,12.585,2.3,1.506,1.506,0,0,0,1.388,0,21.707,21.707,0,0,1,12.584-2.3l20.918,2.46a1.484,1.484,0,0,0,.176.01,1.511,1.511,0,0,0,1.509-1.51V195.57h2.1v46.409h0Zm-33-45.3a21.715,21.715,0,0,1,8.268-.615l15.705,1.846a1.546,1.546,0,0,0,.178.011,1.511,1.511,0,0,0,.174-3.011L895.6,193.062a24.709,24.709,0,0,0-9.41.7A1.51,1.51,0,0,0,886.983,196.678ZM852.81,197.92a1.546,1.546,0,0,0,.178-0.011l15.7-1.846a21.861,21.861,0,0,1,8.268.617,1.51,1.51,0,0,0,.793-2.915,24.879,24.879,0,0,0-9.412-.7l-15.706,1.847A1.511,1.511,0,0,0,852.81,197.92Zm34.173,5.687a21.694,21.694,0,0,1,8.268-.616l15.705,1.846a1.35,1.35,0,0,0,.178.011,1.511,1.511,0,0,0,.174-3.011L895.6,199.991a24.708,24.708,0,0,0-9.41.7A1.511,1.511,0,0,0,886.983,203.607Zm-34.173,1.241a1.546,1.546,0,0,0,.178-0.011l15.7-1.846a21.864,21.864,0,0,1,8.268.617,1.51,1.51,0,0,0,.793-2.915,24.861,24.861,0,0,0-9.412-.7l-15.706,1.846A1.511,1.511,0,0,0,852.81,204.848Zm34.173,5.687a21.694,21.694,0,0,1,8.268-.616l15.705,1.847a1.542,1.542,0,0,0,.178.01,1.511,1.511,0,0,0,.174-3.011L895.6,206.919a24.709,24.709,0,0,0-9.41.7A1.51,1.51,0,0,0,886.983,210.535Zm-34.173,1.241a1.542,1.542,0,0,0,.178-0.01l15.7-1.847a21.864,21.864,0,0,1,8.268.618,1.51,1.51,0,0,0,.793-2.915,24.86,24.86,0,0,0-9.412-.7l-15.706,1.846A1.511,1.511,0,0,0,852.81,211.776Zm34.173,5.687a21.694,21.694,0,0,1,8.268-.616l15.705,1.847a1.542,1.542,0,0,0,.178.01,1.511,1.511,0,0,0,.174-3.011L895.6,213.847a24.709,24.709,0,0,0-9.41.7A1.51,1.51,0,0,0,886.983,217.463ZM852.81,218.7a1.542,1.542,0,0,0,.178-0.01l15.7-1.846a21.826,21.826,0,0,1,8.268.617,1.51,1.51,0,0,0,.793-2.915,24.861,24.861,0,0,0-9.412-.7l-15.706,1.846A1.511,1.511,0,0,0,852.81,218.7Zm58.5,3.918L895.6,220.775a24.712,24.712,0,0,0-9.411.7,1.51,1.51,0,0,0,.791,2.915,21.717,21.717,0,0,1,8.268-.615l15.706,1.846A1.51,1.51,0,0,0,911.308,222.622Zm-58.5,3.011a1.546,1.546,0,0,0,.178-0.011l15.7-1.846a21.844,21.844,0,0,1,8.268.617,1.51,1.51,0,0,0,.793-2.915,24.882,24.882,0,0,0-9.412-.7l-15.706,1.847A1.511,1.511,0,0,0,852.81,225.633Z" transform="translate(-841 -185)"/>
</svg>
